<?xml version="1.0" encoding="UTF-8" standalone="no"?>
<!DOCTYPE svg PUBLIC "-//W3C//DTD SVG 20010904//EN"
              "http://www.w3.org/TR/2001/REC-SVG-20010904/DTD/svg10.dtd">

<svg xmlns="http://www.w3.org/2000/svg"
     width="2.44444in" height="2.75in"
     viewBox="0 0 176 198">
  <path id="Face"
        fill="white" stroke="#292929" stroke-width="1"
        d="M 88.00,93.00
           C 85.61,93.69 76.91,96.29 75.00,96.22
             71.56,96.08 69.45,93.51 65.00,94.43
             62.73,94.90 60.05,96.57 58.00,97.70
             47.79,103.31 46.05,108.68 46.19,120.00
             46.19,120.00 46.19,144.00 46.19,144.00
             46.19,144.00 48.90,151.00 48.90,151.00
             49.84,153.71 49.97,155.29 51.38,158.00
             55.67,166.31 61.69,171.05 67.33,177.99
             73.82,185.94 83.34,196.58 94.91,194.87
             97.87,194.43 98.70,193.23 101.09,191.76
             103.93,190.02 107.31,188.95 109.73,186.61
             111.83,184.59 114.57,178.91 116.52,176.00
             120.39,170.22 128.44,161.97 130.27,157.00
             135.63,144.86 131.90,139.22 130.27,128.00
             130.27,128.00 130.27,117.00 130.27,117.00
             129.92,111.02 126.68,96.69 122.51,92.43
             120.55,90.43 117.55,89.75 115.09,88.16
             109.54,84.59 108.93,81.90 101.00,82.03
             99.40,82.06 97.63,82.16 96.23,83.02
             92.05,85.57 93.60,93.46 88.00,93.00 Z" />
               <path id="Hair Outer"
        fill="#630000" stroke="#292929" stroke-width="1"
        d="M 51.00,162.00
           C 51.00,162.00 47.26,142.00 47.26,142.00
             47.26,142.00 47.91,135.00 47.91,135.00
             48.57,125.37 47.88,126.16 50.37,116.00
             51.45,111.62 51.52,104.61 55.15,102.07
             63.71,96.07 75.07,99.10 78.00,98.69
             78.00,98.69 88.00,94.91 88.00,94.91
             95.18,92.76 99.78,92.65 101.00,84.00
             109.07,87.56 106.41,86.27 114.00,90.67
             124.67,96.86 127.94,100.51 128.00,113.00
             128.05,122.93 130.46,135.56 133.60,145.00
             134.65,148.17 137.60,154.33 141.09,155.21
             145.78,156.40 148.33,151.47 149.80,148.00
             153.97,138.09 157.86,131.25 157.85,120.00
             157.85,120.00 157.85,95.00 157.85,95.00
             157.85,95.00 150.42,68.00 150.42,68.00
             146.39,53.08 150.29,59.27 141.09,45.00
             138.80,41.45 138.05,39.30 134.90,36.09
             128.71,29.79 120.68,26.87 113.00,23.03
             104.07,18.56 100.60,14.13 90.00,14.00
             74.36,13.81 66.14,12.77 52.00,21.26
             45.38,25.23 44.17,27.23 39.55,33.00
             28.00,47.44 29.28,49.38 24.85,66.00
             22.89,73.32 20.27,80.43 19.29,88.00
             19.29,88.00 18.71,98.00 18.71,98.00
             17.80,105.40 17.01,105.59 17.00,114.00
             16.98,128.70 16.66,125.12 20.57,139.00
             20.57,139.00 22.99,148.00 22.99,148.00
             25.14,153.00 31.95,159.01 37.00,161.00
             40.61,162.42 46.98,162.00 51.00,162.00 Z" />
  <path id="Hair Inner"
        fill="#EA0802" stroke="none" stroke-width="1"
        d="M 75.64,14.91
           C 75.64,14.91 71.00,18.00 71.00,18.00
             71.00,18.00 74.00,19.00 74.00,19.00
             74.00,19.00 68.00,18.00 68.00,18.00
             68.00,18.00 68.00,20.00 68.00,20.00
             68.00,20.00 64.00,19.00 64.00,19.00
             64.00,19.00 62.00,26.00 62.00,26.00
             62.00,26.00 58.00,25.00 58.00,25.00
             58.00,25.00 62.00,24.00 62.00,24.00
             62.00,24.00 62.00,22.00 62.00,22.00
             58.51,22.29 57.99,22.03 56.00,25.00
             56.00,25.00 53.00,24.00 53.00,24.00
             53.00,24.00 53.00,26.00 53.00,26.00
             53.00,26.00 47.00,24.00 47.00,24.00
             48.21,27.30 48.55,27.27 52.00,27.00
             50.31,30.68 49.66,31.28 46.00,33.00
             46.80,38.46 46.71,39.74 41.00,41.00
             41.00,41.00 44.00,43.00 44.00,43.00
             44.00,43.00 34.00,50.00 34.00,50.00
             35.50,66.18 31.75,65.75 32.33,73.59
             32.55,76.60 36.49,88.01 38.10,90.68
             40.62,94.86 42.76,94.40 43.00,100.00
             51.06,102.80 49.89,96.91 57.00,96.00
             57.00,96.00 54.00,100.00 54.00,100.00
             54.00,100.00 56.00,101.00 56.00,101.00
             61.55,98.64 66.91,99.19 69.00,93.00
             69.00,93.00 72.00,94.00 72.00,94.00
             74.83,87.93 77.52,86.78 84.00,87.00
             84.00,87.00 85.00,84.00 85.00,84.00
             85.00,84.00 86.00,87.00 86.00,87.00
             86.00,87.00 90.00,86.00 90.00,86.00
             90.00,86.00 88.00,87.00 88.00,87.00
             92.85,87.57 95.57,83.67 100.00,83.21
             105.08,82.69 115.67,89.31 119.00,93.00
             119.00,93.00 121.00,92.00 121.00,92.00
             121.00,92.00 123.00,98.00 123.00,98.00
             129.84,100.53 127.99,103.89 128.75,109.91
             128.75,109.91 131.28,136.00 131.28,136.00
             132.09,141.85 131.40,144.54 137.00,147.00
             137.00,147.00 136.00,144.00 136.00,144.00
             138.98,142.22 139.27,142.42 140.00,139.00
             142.38,136.83 141.66,136.05 141.71,133.00
             141.71,133.00 142.68,123.28 142.68,123.28
             142.68,123.28 142.00,114.00 142.00,114.00
             142.00,114.00 139.00,113.00 139.00,113.00
             139.00,113.00 142.00,108.00 142.00,108.00
             142.00,108.00 144.00,86.00 144.00,86.00
             144.00,86.00 141.00,87.00 141.00,87.00
             141.00,87.00 141.00,83.00 141.00,83.00
             141.00,83.00 145.00,84.00 145.00,84.00
             144.49,79.17 142.47,75.99 147.00,73.00
             142.65,65.49 148.56,60.55 142.00,56.00
             142.00,56.00 143.00,51.00 143.00,51.00
             143.00,51.00 139.00,51.00 139.00,51.00
             139.00,51.00 140.00,47.00 140.00,47.00
             140.00,47.00 137.00,43.00 137.00,43.00
             137.00,43.00 132.00,45.00 132.00,45.00
             132.00,45.00 132.00,34.00 132.00,34.00
             130.11,33.47 127.53,33.16 125.84,32.28
             121.20,29.88 121.05,25.52 112.00,28.00
             112.00,28.00 113.00,25.00 113.00,25.00
             113.00,25.00 109.00,27.00 109.00,27.00
             104.72,19.67 99.26,22.59 95.17,21.33
             90.41,19.86 92.86,17.35 84.00,18.00
             84.00,18.00 86.00,16.00 86.00,16.00
             86.00,16.00 82.73,16.55 82.73,16.55
             82.73,16.55 75.64,14.91 75.64,14.91 Z
           M 83.27,14.91
           C 80.11,17.18 77.69,18.65 74.00,18.00
             77.49,15.06 79.04,14.21 83.27,14.91 Z
           M 63.00,16.00
           C 63.00,16.00 63.00,17.00 63.00,17.00
             63.00,17.00 64.00,16.00 64.00,16.00
             64.00,16.00 63.00,16.00 63.00,16.00 Z
           M 62.00,19.00
           C 62.00,19.00 62.00,20.00 62.00,20.00
             62.00,20.00 63.00,19.00 63.00,19.00
             63.00,19.00 62.00,19.00 62.00,19.00 Z
           M 49.00,36.00
           C 49.00,36.00 49.00,37.00 49.00,37.00
             49.00,37.00 48.00,36.00 48.00,36.00
             48.00,36.00 49.00,36.00 49.00,36.00 Z
           M 90.00,45.00
           C 90.00,45.00 90.00,46.00 90.00,46.00
             90.00,46.00 89.00,45.00 89.00,45.00
             89.00,45.00 90.00,45.00 90.00,45.00 Z
           M 136.00,46.00
           C 136.00,46.00 136.00,47.00 136.00,47.00
             136.00,47.00 135.00,46.00 135.00,46.00
             135.00,46.00 136.00,46.00 136.00,46.00 Z
           M 73.00,52.00
           C 73.00,52.00 73.00,53.00 73.00,53.00
             73.00,53.00 72.00,52.00 72.00,52.00
             72.00,52.00 73.00,52.00 73.00,52.00 Z
           M 112.00,56.00
           C 112.00,56.00 112.00,57.00 112.00,57.00
             112.00,57.00 111.00,56.00 111.00,56.00
             111.00,56.00 112.00,56.00 112.00,56.00 Z
           M 144.00,66.00
           C 144.00,66.00 144.00,67.00 144.00,67.00
             144.00,67.00 143.00,66.00 143.00,66.00
             143.00,66.00 144.00,66.00 144.00,66.00 Z
           M 119.00,68.00
           C 119.00,68.00 119.00,69.00 119.00,69.00
             119.00,69.00 118.00,68.00 118.00,68.00
             118.00,68.00 119.00,68.00 119.00,68.00 Z
           M 74.00,76.00
           C 74.00,76.00 74.00,77.00 74.00,77.00
             74.00,77.00 73.00,76.00 73.00,76.00
             73.00,76.00 74.00,76.00 74.00,76.00 Z
           M 79.00,76.00
           C 79.00,76.00 79.00,77.00 79.00,77.00
             79.00,77.00 78.00,76.00 78.00,76.00
             78.00,76.00 79.00,76.00 79.00,76.00 Z
           M 77.00,81.00
           C 77.00,81.00 77.00,82.00 77.00,82.00
             77.00,82.00 76.00,81.00 76.00,81.00
             76.00,81.00 77.00,81.00 77.00,81.00 Z
           M 80.00,81.00
           C 80.00,81.00 80.00,82.00 80.00,82.00
             80.00,82.00 79.00,81.00 79.00,81.00
             79.00,81.00 80.00,81.00 80.00,81.00 Z
           M 113.00,81.00
           C 113.00,81.00 113.00,82.00 113.00,82.00
             113.00,82.00 112.00,81.00 112.00,81.00
             112.00,81.00 113.00,81.00 113.00,81.00 Z
           M 79.00,82.00
           C 79.00,82.00 79.00,83.00 79.00,83.00
             79.00,83.00 78.00,82.00 78.00,82.00
             78.00,82.00 79.00,82.00 79.00,82.00 Z
           M 109.00,82.00
           C 109.00,82.00 109.00,83.00 109.00,83.00
             109.00,83.00 108.00,82.00 108.00,82.00
             108.00,82.00 109.00,82.00 109.00,82.00 Z
           M 112.00,82.00
           C 112.00,82.00 112.00,83.00 112.00,83.00
             112.00,83.00 111.00,82.00 111.00,82.00
             111.00,82.00 112.00,82.00 112.00,82.00 Z
           M 116.00,83.00
           C 116.00,83.00 116.00,84.00 116.00,84.00
             116.00,84.00 115.00,83.00 115.00,83.00
             115.00,83.00 116.00,83.00 116.00,83.00 Z
           M 128.00,83.00
           C 128.00,83.00 128.00,84.00 128.00,84.00
             128.00,84.00 127.00,83.00 127.00,83.00
             127.00,83.00 128.00,83.00 128.00,83.00 Z
           M 61.00,94.00
           C 61.00,94.00 60.00,98.00 60.00,98.00
             60.00,98.00 57.00,95.00 57.00,95.00
             57.00,95.00 61.00,94.00 61.00,94.00 Z
           M 58.00,97.00
           C 58.00,97.00 58.00,98.00 58.00,98.00
             58.00,98.00 57.00,97.00 57.00,97.00
             57.00,97.00 58.00,97.00 58.00,97.00 Z
           M 57.00,98.00
           C 57.00,98.00 57.00,99.00 57.00,99.00
             57.00,99.00 56.00,98.00 56.00,98.00
             56.00,98.00 57.00,98.00 57.00,98.00 Z
           M 47.00,111.00
           C 47.00,111.00 37.00,117.00 37.00,117.00
             37.00,117.00 38.00,120.00 38.00,120.00
             38.00,120.00 34.00,126.00 34.00,126.00
             34.00,126.00 38.00,126.00 38.00,126.00
             38.00,126.00 40.00,133.00 40.00,133.00
             40.00,133.00 33.00,135.00 33.00,135.00
             33.00,135.00 33.00,139.00 33.00,139.00
             33.00,139.00 36.00,140.00 36.00,140.00
             34.91,143.67 34.49,144.02 37.00,147.00
             37.00,147.00 43.90,133.00 43.90,133.00
             44.60,130.95 46.52,128.03 43.90,127.00
             47.86,121.73 49.59,117.54 47.00,111.00 Z
           M 134.00,117.00
           C 134.00,117.00 134.00,118.00 134.00,118.00
             134.00,118.00 133.00,117.00 133.00,117.00
             133.00,117.00 134.00,117.00 134.00,117.00 Z
           M 133.00,130.00
           C 133.00,130.00 133.00,131.00 133.00,131.00
             133.00,131.00 132.00,130.00 132.00,130.00
             132.00,130.00 133.00,130.00 133.00,130.00 Z
           M 37.00,134.00
           C 37.00,134.00 37.00,135.00 37.00,135.00
             37.00,135.00 36.00,134.00 36.00,134.00
             36.00,134.00 37.00,134.00 37.00,134.00 Z" />

  <path id="L Brow"
        fill="#292929" stroke="none" stroke-width="1"
        d="M 102.00,100.00
           C 102.00,100.00 106.55,94.18 106.55,94.18
             114.32,85.47 118.55,95.54 127.00,98.00
             124.39,82.20 97.91,84.18 102.00,100.00 Z" />
  <path id="R Brow"
        fill="#292929" stroke="none" stroke-width="1"
        d="M 49.00,104.00
           C 53.66,102.19 52.28,99.73 55.42,96.22
             60.30,91.03 66.50,90.73 71.38,96.22
             71.38,96.22 75.00,101.00 75.00,101.00
             77.61,93.51 68.88,90.76 63.00,91.05
             55.36,91.42 50.38,96.78 49.00,104.00 Z" />
  <path id="L Eye #1"
        fill="#292929" stroke="#292929" stroke-width="3"
        d="M 80.27,116.55
           C 73.77,118.52 68.72,120.55 69.27,133.10
             70.54,121.28 59.90,113.55 57.27,117.55
             62.54,108.19 73.13,111.97 80.27,116.55 Z" />
  <path id="L Eye"
        fill="#292929" stroke="#292929" stroke-width="3"
        d="M 99.00,116.00
           C 105.50,117.97 110.55,120.00 110.00,132.55
             108.73,120.73 119.37,113.00 122.00,117.00
             116.73,107.64 106.14,111.42 99.00,116.00 Z" />
  <!-- <path id="R Eye"
        fill="none" stroke="none" stroke-width="1"
        d="M 61.00,116.00
           C 64.26,123.69 61.97,124.61 68.00,126.00
             69.80,120.36 71.52,121.81 79.00,119.00
             79.00,119.00 79.00,117.00 79.00,117.00
             70.88,114.29 69.32,112.88 61.00,116.00 Z" /> -->
  <path id="Nose"
        fill="#EA0802" stroke="#292929" stroke-width="1"
        d="M 79.00,144.00
           C 86.52,156.60 93.97,155.11 102.00,144.00
             96.57,142.46 84.06,141.77 79.00,144.00 Z" />
  <path id="Outer Mouth"
        fill="#EA0802" stroke="#292929" stroke-width="1"
        d="M 69.00,147.50
           C 58.64,149.59 65.10,156.00 68.02,162.00
             73.24,172.71 71.28,171.85 79.23,183.00
             80.37,184.60 81.70,186.93 83.38,187.98
             85.05,189.02 87.10,188.96 89.00,189.00
             91.24,189.04 96.94,189.20 98.79,188.40
             101.30,187.32 102.88,184.19 104.35,182.00
             111.94,170.70 109.00,174.46 113.09,163.00
             114.17,159.97 118.56,152.51 116.16,149.74
             113.62,146.81 108.63,149.47 106.00,150.84
             96.80,155.64 91.44,158.46 81.00,153.65
             75.18,150.96 75.31,147.61 69.00,147.50 Z" />
  <path id="Inner Mouth"
        fill="#292929" stroke="none" stroke-width="1"
        d="M 111.00,153.00
           C 107.43,154.69 100.22,158.71 97.00,159.47
             87.60,161.70 78.73,157.91 70.00,155.00
             71.69,159.84 73.79,161.53 78.00,164.41
             85.40,169.46 91.84,170.79 100.00,166.35
             104.29,164.02 112.30,158.47 111.00,153.00 Z" />
</svg>
